<?xml version='1.0' encoding='utf-8'?>
<svg xmlns="http://www.w3.org/2000/svg" width="100%" height="100%" viewBox="0 0 414 414" version="1.1" style="fill-rule:evenodd;clip-rule:evenodd;stroke-linejoin:round;stroke-miterlimit:1.41421;"> <g transform="matrix(1.33333,0,0,1.33333,-0,-0)"> <g> <path d="M273.586,214.965C322.697,165.854 322.696,85.944 273.586,36.833C224.476,-12.278 144.565,-12.278 95.455,36.833C53.792,78.497 47.481,140.462 76.509,188.85C76.509,188.85 78.595,192.346 75.779,195.162C59.715,211.226 11.516,259.425 11.516,259.425C-1.274,272.215 -4.321,290.1 7.023,301.445L8.976,303.396C20.319,314.741 38.205,311.697 50.996,298.906C50.996,298.906 99.092,250.809 115.124,234.778C118.074,231.827 121.572,233.912 121.572,233.912C169.957,262.938 231.923,256.629 273.586,214.965ZM118.711,191.71C82.423,155.422 82.424,96.378 118.712,60.09C154.999,23.803 214.044,23.802 250.33,60.09C286.619,96.377 286.619,155.422 250.33,191.71C214.043,227.997 154.999,227.997 118.711,191.71Z" style="fill:rgb(20,122,201);fill-rule:nonzero;"/> <g> <path d="M190.987,163.91L178.874,163.91C174.475,163.91 170.874,167.51 170.874,171.91L170.874,184.021C170.874,188.42 174.475,192.021 178.874,192.021L190.987,192.021C195.386,192.021 198.987,188.42 198.987,184.021L198.987,171.91C198.987,167.51 195.387,163.91 190.987,163.91Z" style="fill:rgb(20,122,201);fill-rule:nonzero;"/> <path d="M185.755,56.315L184.105,56.315C162.585,56.315 145.08,73.822 145.08,95.342C145.08,103.485 151.681,105.718 159.824,105.718C167.969,105.718 174.57,103.485 174.57,95.342C174.57,90.083 178.847,85.804 184.105,85.804L185.755,85.804C191.015,85.804 195.291,90.083 195.291,95.342C195.291,99.524 191.945,103.545 186.483,109.76C179.219,118.025 170.183,128.31 170.183,144.068C170.183,152.212 176.785,154.444 184.927,154.444C193.071,154.444 197.681,151.964 199.672,144.068C200.802,139.59 203.078,135.549 208.635,129.225C215.827,121.039 224.781,110.85 224.781,95.342C224.782,73.823 207.275,56.315 185.755,56.315Z" style="fill:rgb(20,122,201);fill-rule:nonzero;"/> </g> </g> </g> </svg>